<svg xmlns="http://www.w3.org/2000/svg" viewBox="0 0 172.99 136.05"><path d="M39.57.16h84.12a2.92 2.92 0 0 1 2.91 1.64q16.8 29.2 33.66 58.35Q164 66.58 167.71 73c.14.25.26.51.4.75.41.71.26 1-.61 1h-23.7a2.52 2.52 0 0 1-2.57-1.45q-8.52-14.91-17.14-29.74C120.47 37.43 117 31.16 113.3 25a3.2 3.2 0 0 0-3.3-1.87c-18.32 0-36.63 0-54.94.06a3.34 3.34 0 0 1-3.5-2C48 14.79 44.28 8.49 40.62 2.15 40.29 1.58 40 1 39.57.16zM65.26 105c-.63 0-.7-.55-.92-.93q-14.16-24.51-28.29-49-8.92-15.48-17.89-30.94a2.1 2.1 0 0 1 0-2.44C22.13 14.87 26.06 8 30 1.18c.91-1.59.92-1.57 1.86.05l38.95 67.44c2.55 4.43 5.08 8.86 7.63 13.29C75.71 86.64 73 91.31 70.29 96c-1.7 3-3.63 5.88-5.03 9z" fill="#1d99f0"/><path d="M47.1 135.68c-2.13-3.62-4.29-7.23-6.39-10.87Q20.57 89.92.42 55a2.19 2.19 0 0 1 0-2.56c4-6.89 8-13.82 12-20.75.48-.83.72-1.29 1.4-.11Q37 71.82 60.17 112c.16.29.29.59.43.89a11.28 11.28 0 0 0-.84 1.12c-2.62 4.52-5.2 9.06-7.82 13.58-1.58 2.7-3.04 5.5-4.84 8.09zM65.26 105c1.4-3.15 3.33-6 5-9 2.74-4.69 5.45-9.36 8.18-14h92.85c2 0 2.05 0 1.06 1.72q-5.83 10.14-11.66 20.3a2 2 0 0 1-2 1.16H66.54c-.43-.05-.85-.11-1.28-.18z" fill="#0a479b"/><path d="M47.1 135.68c1.8-2.59 3.26-5.39 4.84-8.11 2.62-4.52 5.2-9.06 7.82-13.58a11.28 11.28 0 0 1 .84-1.12h92.98c1.91 0 1.93 0 .94 1.73-2.2 3.86-4.43 7.71-6.65 11.56-1.67 2.91-3.38 5.8-5 8.74a2 2 0 0 1-2 1.18H48.73a2.1 2.1 0 0 1-1.63-.4z" fill="#1d99f0"/></svg>