<svg data-v-1892154e="" version="1.0" xmlns="http://www.w3.org/2000/svg" xmlns:xlink="http://www.w3.org/1999/xlink" width="100%" height="100%" viewBox="0 0 340.000000 250.000000" preserveAspectRatio="xMidYMid meet" color-interpolation-filters="sRGB" style="margin: auto;">
    <rect data-v-1892154e="" x="0" y="0" width="100%" height="100%" fill="#FFFFFF" fill-opacity="1" class="background"></rect>
    <rect data-v-1892154e="" x="0" y="0" width="100%" height="100%" fill="url(#watermark)" fill-opacity="1" class="watermarklayer"></rect>
    <g data-v-1892154e="" fill="#333" class="icon-text-wrapper icon-svg-group iconsvg" transform="translate(49.06755065917969,101.3935661315918)">
        <g class="iconsvg-imagesvg" transform="translate(0,0)">
            <g>
                <rect fill="#333" fill-opacity="0" stroke-width="2" x="0" y="0" width="60" height="47.21286708004155" class="image-rect"></rect>
                <svg x="0" y="0" width="60" height="47.21286708004155" filtersec="colorsb3506841356" class="image-svg-svg primary">
                    <svg xmlns="http://www.w3.org/2000/svg" viewBox="0.006990882568061352 0.0011070966720581055 172.97366333007812 136.1092987060547">
                        <path d="M39.57.16h84.12a2.92 2.92 0 0 1 2.91 1.64q16.8 29.2 33.66 58.35Q164 66.58 167.71 73c.14.25.26.51.4.75.41.71.26 1-.61 1h-23.7a2.52 2.52 0 0 1-2.57-1.45q-8.52-14.91-17.14-29.74C120.47 37.43 117 31.16 113.3 25a3.2 3.2 0 0 0-3.3-1.87c-18.32 0-36.63 0-54.94.06a3.34 3.34 0 0 1-3.5-2C48 14.79 44.28 8.49 40.62 2.15 40.29 1.58 40 1 39.57.16zM65.26 105c-.63 0-.7-.55-.92-.93q-14.16-24.51-28.29-49-8.92-15.48-17.89-30.94a2.1 2.1 0 0 1 0-2.44C22.13 14.87 26.06 8 30 1.18c.91-1.59.92-1.57 1.86.05l38.95 67.44c2.55 4.43 5.08 8.86 7.63 13.29C75.71 86.64 73 91.31 70.29 96c-1.7 3-3.63 5.88-5.03 9z" fill="#1D99F0"></path>
                        <path d="M47.1 135.68c-2.13-3.62-4.29-7.23-6.39-10.87Q20.57 89.92.42 55a2.19 2.19 0 0 1 0-2.56c4-6.89 8-13.82 12-20.75.48-.83.72-1.29 1.4-.11Q37 71.82 60.17 112c.16.29.29.59.43.89a11.28 11.28 0 0 0-.84 1.12c-2.62 4.52-5.2 9.06-7.82 13.58-1.58 2.7-3.04 5.5-4.84 8.09zM65.26 105c1.4-3.15 3.33-6 5-9 2.74-4.69 5.45-9.36 8.18-14h92.85c2 0 2.05 0 1.06 1.72q-5.83 10.14-11.66 20.3a2 2 0 0 1-2 1.16H66.54c-.43-.05-.85-.11-1.28-.18z" fill="#0A479B"></path>
                        <path d="M47.1 135.68c1.8-2.59 3.26-5.39 4.84-8.11 2.62-4.52 5.2-9.06 7.82-13.58a11.28 11.28 0 0 1 .84-1.12h92.98c1.91 0 1.93 0 .94 1.73-2.2 3.86-4.43 7.71-6.65 11.56-1.67 2.91-3.38 5.8-5 8.74a2 2 0 0 1-2 1.18H48.73a2.1 2.1 0 0 1-1.63-.4z" fill="#1D99F0"></path>
                    </svg>
                </svg> <!---->
            </g>
        </g>
        <g transform="translate(67,7.17143440246582)">
            <g data-gra="path-name" fill-rule="" class="tp-name iconsvg-namesvg">
                <g transform="scale(1)">
                    <g>
                        <path d="M3.30 0L3.30-30.49L13.93-30.49Q20.15-30.49 23.16-28.64Q26.17-26.80 26.17-22.90L26.17-22.90Q26.17-20.33 24.86-18.52Q23.55-16.70 21.40-16.18L21.40-16.18L21.40-15.97Q24.23-15.22 25.51-13.47Q26.78-11.72 26.78-8.93L26.78-8.93Q26.78-4.78 23.66-2.39Q20.54 0 15.16 0L15.16 0L3.30 0ZM11.53-24.25L11.53-18.79L14.01-18.79Q15.79-18.79 16.76-19.52Q17.73-20.25 17.73-21.69L17.73-21.69Q17.73-24.25 13.85-24.25L13.85-24.25L11.53-24.25ZM14.26-12.76L11.53-12.76L11.53-6.36L14.43-6.36Q18.29-6.36 18.29-9.61L18.29-9.61Q18.29-11.14 17.26-11.95Q16.23-12.76 14.26-12.76L14.26-12.76ZM52.66 0L47.01 0L45.44-3.13L45.28-3.13Q43.63-1.08 41.92-0.33Q40.21 0.42 37.50 0.42L37.50 0.42Q34.16 0.42 32.24-1.58Q30.32-3.59 30.32-7.22L30.32-7.22Q30.32-10.99 32.95-12.84Q35.58-14.68 40.56-14.91L40.56-14.91L44.50-15.04L44.50-15.37Q44.50-18.29 41.63-18.29L41.63-18.29Q39.04-18.29 35.06-16.54L35.06-16.54L32.70-21.92Q36.83-24.05 43.13-24.05L43.13-24.05Q47.67-24.05 50.17-21.79Q52.66-19.54 52.66-15.50L52.66-15.50L52.66 0ZM40.96-5.34L40.96-5.34Q42.44-5.34 43.49-6.28Q44.55-7.22 44.55-8.72L44.55-8.72L44.55-10.55L42.67-10.47Q38.64-10.32 38.64-7.51L38.64-7.51Q38.64-5.34 40.96-5.34ZM95.37 0L87.22 0L87.22-12.85Q87.22-15.25 86.56-16.44Q85.90-17.64 84.48-17.64L84.48-17.64Q82.61-17.64 81.73-16.04Q80.86-14.43 80.86-11.01L80.86-11.01L80.86 0L72.68 0L72.68-12.85Q72.68-15.25 72.05-16.44Q71.43-17.64 70.03-17.64L70.03-17.64Q68.11-17.64 67.24-15.93Q66.36-14.22 66.36-10.34L66.36-10.34L66.36 0L58.21 0L58.21-23.63L64.36-23.63L65.38-20.71L65.86-20.71Q66.80-22.34 68.58-23.19Q70.36-24.05 72.64-24.05L72.64-24.05Q77.75-24.05 79.81-20.94L79.81-20.94L80.46-20.94Q81.46-22.40 83.24-23.22Q85.03-24.05 87.17-24.05L87.17-24.05Q91.37-24.05 93.37-21.90Q95.37-19.75 95.37-15.37L95.37-15.37L95.37 0ZM115.35-24.05L115.35-24.05Q119.21-24.05 121.47-20.81Q123.73-17.58 123.73-11.87L123.73-11.87Q123.73-6.11 121.45-2.85Q119.17 0.42 115.10 0.42L115.10 0.42Q113.79 0.42 112.76 0.14Q111.74-0.15 110.94-0.65Q110.14-1.15 109.07-2.31L109.07-2.31L108.57-2.31L107.28 0L100.92 0L100.92-32.45L109.07-32.45L109.07-25.11Q109.07-23.80 108.78-20.58L108.78-20.58L109.07-20.58Q110.26-22.42 111.81-23.23Q113.37-24.05 115.35-24.05ZM112.37-17.64L112.37-17.64Q110.66-17.64 109.86-16.45Q109.07-15.27 109.07-12.72L109.07-12.72L109.07-11.57Q109.07-8.68 109.86-7.41Q110.66-6.15 112.45-6.15L112.45-6.15Q113.89-6.15 114.66-7.62Q115.43-9.09 115.43-11.95L115.43-11.95Q115.43-17.64 112.37-17.64ZM150.95-11.87L150.95-11.87Q150.95-6.07 147.83-2.83Q144.71 0.42 139.10 0.42L139.10 0.42Q133.72 0.42 130.54-2.90Q127.36-6.21 127.36-11.87L127.36-11.87Q127.36-17.64 130.48-20.84Q133.60-24.05 139.23-24.05L139.23-24.05Q142.71-24.05 145.38-22.57Q148.05-21.08 149.50-18.32Q150.95-15.56 150.95-11.87ZM135.64-11.87L135.64-11.87Q135.64-8.82 136.45-7.23Q137.27-5.63 139.19-5.63L139.19-5.63Q141.08-5.63 141.87-7.23Q142.65-8.82 142.65-11.87L142.65-11.87Q142.65-14.89 141.86-16.43Q141.06-17.98 139.14-17.98L139.14-17.98Q137.27-17.98 136.45-16.44Q135.64-14.91 135.64-11.87ZM178.16-11.87L178.16-11.87Q178.16-6.07 175.05-2.83Q171.93 0.42 166.32 0.42L166.32 0.42Q160.94 0.42 157.76-2.90Q154.58-6.21 154.58-11.87L154.58-11.87Q154.58-17.64 157.70-20.84Q160.81-24.05 166.44-24.05L166.44-24.05Q169.93-24.05 172.60-22.57Q175.27-21.08 176.72-18.32Q178.16-15.56 178.16-11.87ZM162.86-11.87L162.86-11.87Q162.86-8.82 163.67-7.23Q164.48-5.63 166.40-5.63L166.40-5.63Q168.30-5.63 169.08-7.23Q169.86-8.82 169.86-11.87L169.86-11.87Q169.86-14.89 169.07-16.43Q168.28-17.98 166.36-17.98L166.36-17.98Q164.48-17.98 163.67-16.44Q162.86-14.91 162.86-11.87Z" transform="translate(-3.295099061522419, 32.450469238790404)"></path>
                    </g> <!----> <!----> <!----> <!----> <!----> <!----> <!---->
                </g>
            </g> <!---->
        </g>
    </g>
    <defs v-gra="od"></defs>
</svg>